<?xml version="1.0" encoding="UTF-8"?>
<svg width="300px" height="300px" viewBox="0 0 300 300" version="1.1" xmlns="http://www.w3.org/2000/svg">
  <g stroke="none" stroke-width="1" fill="none" fill-rule="evenodd">
    <!-- Horizontal Lines -->
    <path d="M0,50 L300,50" stroke="#3A86FF" stroke-width="2" stroke-linecap="round" stroke-dasharray="10,15"/>
    <path d="M0,150 L300,150" stroke="#3A86FF" stroke-width="2" stroke-linecap="round" stroke-dasharray="10,15"/>
    <path d="M0,250 L300,250" stroke="#3A86FF" stroke-width="2" stroke-linecap="round" stroke-dasharray="10,15"/>
    
    <!-- Vertical Lines -->
    <path d="M50,0 L50,300" stroke="#3A86FF" stroke-width="2" stroke-linecap="round" stroke-dasharray="10,15"/>
    <path d="M150,0 L150,300" stroke="#3A86FF" stroke-width="2" stroke-linecap="round" stroke-dasharray="10,15"/>
    <path d="M250,0 L250,300" stroke="#3A86FF" stroke-width="2" stroke-linecap="round" stroke-dasharray="10,15"/>
    
    <!-- Diagonal Lines -->
    <path d="M0,0 L300,300" stroke="#8338EC" stroke-width="1.5" stroke-linecap="round" stroke-dasharray="5,20"/>
    <path d="M300,0 L0,300" stroke="#8338EC" stroke-width="1.5" stroke-linecap="round" stroke-dasharray="5,20"/>
    
    <!-- Circles at Intersections -->
    <circle cx="50" cy="50" r="5" fill="#3A86FF" opacity="0.7"/>
    <circle cx="150" cy="50" r="5" fill="#3A86FF" opacity="0.7"/>
    <circle cx="250" cy="50" r="5" fill="#3A86FF" opacity="0.7"/>
    
    <circle cx="50" cy="150" r="5" fill="#3A86FF" opacity="0.7"/>
    <circle cx="150" cy="150" r="5" fill="#3A86FF" opacity="0.7"/>
    <circle cx="250" cy="150" r="5" fill="#3A86FF" opacity="0.7"/>
    
    <circle cx="50" cy="250" r="5" fill="#3A86FF" opacity="0.7"/>
    <circle cx="150" cy="250" r="5" fill="#3A86FF" opacity="0.7"/>
    <circle cx="250" cy="250" r="5" fill="#3A86FF" opacity="0.7"/>
  </g>
</svg>